<svg width="1520.000000" height="215.287109" viewBox="0 0 1520 215.287" fill="none" xmlns="http://www.w3.org/2000/svg" xmlns:xlink="http://www.w3.org/1999/xlink">
	<desc>
			Created with Pixso.
	</desc>
	<defs/>
	<path d="M160.2 212.62L208.47 212.62L129.11 0L79.95 0L0 212.62L45.3 212.62L61.59 167.01L144.21 167.01L160.2 212.62ZM279.39 212.62L279.39 137.4L307.52 137.4L355.49 212.62L409.09 212.62L354.31 130.59C384.51 120.52 402.28 97.72 402.28 68.99C402.28 24.87 371.19 0 317.59 0L234.37 0L234.37 212.62L279.39 212.62ZM528.68 212.62L528.68 40.56L595.9 40.56L595.9 0L416.75 0L416.75 40.56L483.67 40.56L483.67 212.62L528.68 212.62ZM1089.26 212.62L1089.26 172.05L996.87 172.05L996.87 0L951.85 0L951.85 212.62L1089.26 212.62ZM1165.18 212.62L1165.18 0L1120.17 0L1120.17 212.62L1165.18 212.62ZM1253.67 212.62L1253.67 131.48L1331.55 131.48L1331.55 92.68L1253.67 92.68L1253.67 39.08L1346.06 39.08L1346.06 0L1208.66 0L1208.66 212.62L1253.67 212.62ZM1520 173.53L1421.98 173.53L1421.98 122.59L1509.04 122.59L1509.04 83.8L1421.98 83.8L1421.98 39.08L1517.93 39.08L1517.93 0L1376.97 0L1376.97 212.62L1520 212.62L1520 173.53ZM759.86 96.53C746.53 82.02 740.61 74.03 740.61 63.07C740.61 50.93 749.2 42.34 760.75 42.34C772.89 42.34 781.48 49.75 782.96 63.66L821.16 63.66C820.86 31.09 796.88 9.47 760.75 9.47C724.92 9.47 698.27 31.98 698.27 62.77C698.27 74.92 701.82 85.58 709.22 95.94C686.72 108.68 673.09 127.63 673.09 150.13C673.09 189.82 701.52 215.28 745.94 215.28C765.49 215.28 783.55 207.88 799.54 193.96L817.01 212.62L867.65 212.62L823.23 164.64C832.12 148.06 838.04 127.63 838.33 109.86L800.73 109.86C800.43 119.34 799.54 128.81 797.77 137.4L759.86 96.53ZM279.39 37.31L315.51 37.31C342.76 37.31 357.27 47.97 357.27 68.99C357.27 89.72 342.76 100.38 315.51 100.38L279.39 100.38L279.39 37.31ZM103.35 49.15L131.77 131.18L74.32 131.18L103.35 49.15ZM712.48 147.76C712.48 135.62 719.29 125.85 730.25 120.22L778.52 171.46C770.22 178.27 759.86 181.82 748.9 181.82C724.92 181.82 712.48 166.72 712.48 147.76Z" fill="#000000" fill-opacity="1.000000" fill-rule="evenodd"/>
</svg>
