<svg width="16.666992" height="16.666687" viewBox="0 0 16.667 16.6667" fill="none" xmlns="http://www.w3.org/2000/svg" xmlns:xlink="http://www.w3.org/1999/xlink">
	<desc>
			Created with Pixso.
	</desc>
	<defs/>
	<path id="Vector" d="M8.33 5.83C7.66 5.83 7.03 6.09 6.56 6.56C6.09 7.03 5.83 7.67 5.83 8.33C5.83 8.99 6.09 9.63 6.56 10.1C7.03 10.56 7.66 10.83 8.33 10.83C8.99 10.83 9.63 10.56 10.1 10.1C10.57 9.63 10.83 8.99 10.83 8.33C10.83 7.67 10.57 7.03 10.1 6.56C9.63 6.09 8.99 5.83 8.33 5.83ZM8.33 4.16C9.43 4.16 10.49 4.6 11.27 5.38C12.06 6.16 12.5 7.22 12.5 8.33C12.5 9.43 12.06 10.49 11.27 11.27C10.49 12.06 9.43 12.5 8.33 12.5C7.22 12.5 6.16 12.06 5.38 11.27C4.6 10.49 4.16 9.43 4.16 8.33C4.16 7.22 4.6 6.16 5.38 5.38C6.16 4.6 7.22 4.16 8.33 4.16ZM13.75 3.95C13.75 4.23 13.64 4.49 13.44 4.69C13.25 4.89 12.98 5 12.7 5C12.43 5 12.16 4.89 11.97 4.69C11.77 4.49 11.66 4.23 11.66 3.95C11.66 3.68 11.77 3.41 11.97 3.22C12.16 3.02 12.43 2.91 12.7 2.91C12.98 2.91 13.25 3.02 13.44 3.22C13.64 3.41 13.75 3.68 13.75 3.95ZM8.33 1.66C6.27 1.66 5.93 1.67 4.97 1.71C4.32 1.74 3.88 1.83 3.47 1.99C3.13 2.11 2.82 2.31 2.57 2.57C2.31 2.82 2.11 3.13 1.99 3.47C1.83 3.88 1.74 4.32 1.71 4.97C1.67 5.89 1.66 6.21 1.66 8.33C1.66 10.39 1.67 10.73 1.71 11.69C1.74 12.34 1.83 12.78 1.99 13.18C2.13 13.55 2.29 13.81 2.57 14.08C2.85 14.36 3.11 14.53 3.47 14.67C3.88 14.83 4.32 14.92 4.97 14.95C5.89 14.99 6.21 15 8.33 15C10.39 15 10.73 14.99 11.69 14.95C12.34 14.92 12.78 14.83 13.18 14.67C13.52 14.55 13.83 14.35 14.08 14.09C14.36 13.81 14.53 13.54 14.67 13.19C14.83 12.78 14.92 12.34 14.95 11.69C14.99 10.77 15 10.44 15 8.33C15 6.27 14.99 5.93 14.95 4.97C14.92 4.32 14.83 3.88 14.67 3.47C14.54 3.13 14.34 2.82 14.08 2.57C13.83 2.31 13.52 2.11 13.18 1.99C12.78 1.83 12.34 1.74 11.69 1.71C10.77 1.67 10.44 1.66 8.33 1.66ZM8.33 0C10.59 0 10.87 0 11.76 0.04C12.65 0.09 13.25 0.23 13.79 0.43C14.34 0.64 14.8 0.93 15.26 1.39C15.69 1.81 16.01 2.31 16.22 2.87C16.43 3.4 16.57 4.01 16.61 4.89C16.65 5.78 16.66 6.06 16.66 8.33C16.66 10.59 16.65 10.88 16.61 11.76C16.57 12.65 16.43 13.26 16.22 13.79C16.02 14.34 15.69 14.85 15.26 15.26C14.85 15.69 14.34 16.01 13.79 16.22C13.26 16.43 12.65 16.57 11.76 16.61C10.87 16.65 10.59 16.66 8.33 16.66C6.06 16.66 5.78 16.65 4.89 16.61C4.01 16.57 3.4 16.43 2.87 16.22C2.31 16.02 1.81 15.69 1.39 15.26C0.97 14.85 0.64 14.34 0.43 13.79C0.23 13.26 0.09 12.65 0.04 11.76C0.01 10.88 0 10.59 0 8.33C0 6.06 0 5.78 0.04 4.89C0.09 4.01 0.23 3.4 0.43 2.87C0.64 2.31 0.97 1.81 1.39 1.39C1.81 0.97 2.31 0.64 2.87 0.43C3.4 0.23 4 0.09 4.89 0.04C5.78 0.01 6.06 0 8.33 0Z" fill="#000000" fill-opacity="1.000000" fill-rule="nonzero"/>
</svg>
