<svg width="209.169922" height="17.952026" viewBox="0 0 209.17 17.952" fill="none" xmlns="http://www.w3.org/2000/svg" xmlns:xlink="http://www.w3.org/1999/xlink">
	<desc>
			Created with Pixso.
	</desc>
	<defs/>
	<path d="M128.76 17.95C134.09 17.95 137.46 14.15 137.46 8.8C137.46 8.63 137.45 8.47 137.45 8.3L128.57 8.3L128.57 11.2L133.56 11.2C133.08 13.34 131.47 14.85 128.93 14.85C125.47 14.85 123.62 12.31 123.62 9C123.62 5.3 125.73 3.26 128.52 3.26C130.82 3.26 132.41 4.58 132.93 6.33L137.23 6.33C136.1 2.59 132.98 0 128.61 0C123.57 0 119.88 3.81 119.88 8.9C119.88 14.23 123.77 17.95 128.76 17.95ZM3.64 17.59L3.64 11.01L9.95 11.01L9.95 7.87L3.64 7.87L3.64 3.52L11.13 3.52L11.13 0.35L0 0.35L0 17.59L3.64 17.59ZM21.75 11.11L27.89 0.35L24.22 0.35L20.04 7.77L15.94 0.35L12 0.35L18.1 11.11L18.1 17.59L21.75 17.59L21.75 11.11ZM33.46 17.59L33.46 11.49L35.74 11.49L39.62 17.59L43.97 17.59L39.53 10.94C41.98 10.12 43.42 8.28 43.42 5.95C43.42 2.37 40.9 0.35 36.55 0.35L29.81 0.35L29.81 17.59L33.46 17.59ZM49.89 17.59L49.89 11.49L52.16 11.49L56.05 17.59L60.4 17.59L55.96 10.94C58.41 10.12 59.85 8.28 59.85 5.95C59.85 2.37 57.33 0.35 52.98 0.35L46.24 0.35L46.24 17.59L49.89 17.59ZM74.26 14.42L66.32 14.42L66.32 10.29L73.37 10.29L73.37 7.15L66.32 7.15L66.32 3.52L74.09 3.52L74.09 0.35L62.67 0.35L62.67 17.59L74.26 17.59L74.26 14.42ZM89.92 17.59L92.97 17.59L97.53 6.04L97.53 17.59L100.84 17.59L100.84 0.35L96.47 0.35L91.46 13.12L86.46 0.35L82.1 0.35L82.1 17.59L85.41 17.59L85.41 6.14L89.92 17.59ZM115.88 17.59L119.79 17.59L113.36 0.35L109.38 0.35L102.9 17.59L106.57 17.59L107.89 13.89L114.59 13.89L115.88 17.59ZM150.59 17.59L154.5 17.59L148.07 0.35L144.09 0.35L137.61 17.59L141.28 17.59L142.6 13.89L149.3 13.89L150.59 17.59ZM169.4 17.59L169.4 14.44L160.25 14.44L169.11 3.28L169.11 0.35L155.84 0.35L155.84 3.5L164.62 3.5L155.81 14.71L155.81 17.59L169.4 17.59ZM175.7 17.59L175.7 0.35L172.05 0.35L172.05 17.59L175.7 17.59ZM190.45 17.59L194.03 17.59L194.03 0.35L190.67 0.35L190.67 11.78L183.16 0.35L179.22 0.35L179.22 17.59L182.56 17.59L182.56 5.56L190.45 17.59ZM209.17 14.42L201.22 14.42L201.22 10.29L208.28 10.29L208.28 7.15L201.22 7.15L201.22 3.52L209 3.52L209 0.35L197.57 0.35L197.57 17.59L209.17 17.59L209.17 14.42ZM33.46 3.38L36.38 3.38C38.59 3.38 39.77 4.24 39.77 5.95C39.77 7.63 38.59 8.49 36.38 8.49L33.46 8.49L33.46 3.38ZM49.89 3.38L52.81 3.38C55.02 3.38 56.2 4.24 56.2 5.95C56.2 7.63 55.02 8.49 52.81 8.49L49.89 8.49L49.89 3.38ZM111.27 4.34L113.58 10.99L108.92 10.99L111.27 4.34ZM145.99 4.34L148.29 10.99L143.63 10.99L145.99 4.34Z" fill="#000000" fill-opacity="1.000000" fill-rule="evenodd"/>
</svg>
