<svg width="1520.000000" height="214.742676" viewBox="0 0 1520 214.743" fill="none" xmlns="http://www.w3.org/2000/svg" xmlns:xlink="http://www.w3.org/1999/xlink">
	<desc>
			Created with Pixso.
	</desc>
	<defs/>
	<path d="M558.16 214.74C621.93 214.74 662.2 169.36 662.2 105.32C662.2 103.34 662.16 101.34 662.08 99.33L555.86 99.33L555.86 134.07L615.58 134.07C609.83 159.62 590.6 177.7 560.17 177.7C518.83 177.7 496.72 147.27 496.72 107.65C496.72 63.44 521.98 39.04 555.29 39.04C582.85 39.04 601.79 54.83 608.11 75.79L659.5 75.79C646.01 31 608.68 0 556.43 0C496.15 0 451.93 45.64 451.93 106.51C451.93 170.24 498.44 214.74 558.16 214.74ZM93.59 210.43L130.05 210.43L184.59 72.34L184.59 210.43L224.21 210.43L224.21 4.3L171.96 4.3L111.96 157.03L52.25 4.3L0 4.3L0 210.43L39.61 210.43L39.61 73.49L93.59 210.43ZM404.14 210.43L450.94 210.43L374 4.3L326.34 4.3L248.83 210.43L292.75 210.43L308.54 166.22L388.64 166.22L404.14 210.43ZM819.35 210.43L866.15 210.43L789.21 4.3L741.55 4.3L664.04 210.43L707.96 210.43L723.75 166.22L803.85 166.22L819.35 210.43ZM1044.28 210.43L1044.28 172.82L934.9 172.82L1040.84 39.33L1040.84 4.3L882.07 4.3L882.07 41.91L987.15 41.91L881.79 175.98L881.79 210.43L1044.28 210.43ZM1119.66 210.43L1119.66 4.3L1076.02 4.3L1076.02 210.43L1119.66 210.43ZM1296.17 210.43L1338.95 210.43L1338.95 4.3L1298.75 4.3L1298.75 140.96L1208.9 4.3L1161.81 4.3L1161.81 210.43L1201.72 210.43L1201.72 66.6L1296.17 210.43ZM1520 172.54L1424.97 172.54L1424.97 123.16L1509.38 123.16L1509.38 85.55L1424.97 85.55L1424.97 42.2L1517.99 42.2L1517.99 4.3L1381.34 4.3L1381.34 210.43L1520 210.43L1520 172.54ZM349.02 51.96L376.58 131.48L320.89 131.48L349.02 51.96ZM764.23 51.96L791.79 131.48L736.1 131.48L764.23 51.96Z" fill="#000000" fill-opacity="1.000000" fill-rule="evenodd"/>
</svg>
