<svg width="16.986328" height="13.811218" viewBox="0 0 16.9863 13.8112" fill="none" xmlns="http://www.w3.org/2000/svg" xmlns:xlink="http://www.w3.org/1999/xlink">
	<desc>
			Created with Pixso.
	</desc>
	<defs/>
	<path id="Vector" d="M16.98 1.63C16.34 1.92 15.67 2.1 14.98 2.18C15.71 1.75 16.25 1.06 16.51 0.25C15.83 0.66 15.08 0.95 14.3 1.1C13.77 0.54 13.08 0.17 12.32 0.04C11.56 -0.08 10.79 0.04 10.11 0.41C9.43 0.77 8.89 1.35 8.58 2.05C8.26 2.75 8.18 3.53 8.36 4.28C6.98 4.21 5.62 3.85 4.38 3.22C3.14 2.59 2.05 1.71 1.18 0.64C0.87 1.17 0.7 1.77 0.71 2.39C0.71 3.6 1.32 4.67 2.26 5.29C1.7 5.27 1.16 5.12 0.68 4.85L0.68 4.9C0.68 5.7 0.96 6.48 1.47 7.11C1.98 7.73 2.68 8.16 3.47 8.32C2.96 8.45 2.42 8.48 1.9 8.38C2.12 9.07 2.55 9.67 3.14 10.11C3.72 10.54 4.43 10.78 5.15 10.8C4.43 11.36 3.6 11.78 2.72 12.03C1.83 12.28 0.91 12.35 0 12.24C1.59 13.26 3.44 13.81 5.34 13.81C11.75 13.81 15.25 8.5 15.25 3.89C15.25 3.74 15.25 3.59 15.24 3.44C15.92 2.95 16.51 2.34 16.98 1.64L16.98 1.63Z" fill="#000000" fill-opacity="1.000000" fill-rule="nonzero"/>
</svg>
