<svg width="15.000000" height="15.000000" viewBox="0 0 15 15" fill="none" xmlns="http://www.w3.org/2000/svg" xmlns:xlink="http://www.w3.org/1999/xlink">
	<desc>
			Created with Pixso.
	</desc>
	<defs/>
	<path id="Vector" d="M0 0C8.28 0 15 6.71 15 15L12.5 15C12.5 8.09 6.9 2.5 0 2.5L0 0ZM0 5.83C5.06 5.83 9.16 9.93 9.16 15L6.66 15C6.66 13.23 5.96 11.53 4.71 10.28C3.46 9.03 1.76 8.33 0 8.33L0 5.83ZM0 11.66C0.88 11.66 1.73 12.01 2.35 12.64C2.98 13.26 3.33 14.11 3.33 15L0 15L0 11.66Z" fill="#000000" fill-opacity="1.000000" fill-rule="nonzero"/>
</svg>
