<svg width="16.666992" height="13.333313" viewBox="0 0 16.667 13.3333" fill="none" xmlns="http://www.w3.org/2000/svg" xmlns:xlink="http://www.w3.org/1999/xlink">
	<desc>
			Created with Pixso.
	</desc>
	<defs/>
	<path id="Vector" d="M16.28 2.08C16.66 3.56 16.66 6.66 16.66 6.66C16.66 6.66 16.66 9.76 16.28 11.25C16.07 12.07 15.45 12.71 14.67 12.93C13.24 13.33 8.33 13.33 8.33 13.33C8.33 13.33 3.42 13.33 1.99 12.93C1.2 12.71 0.58 12.07 0.38 11.25C0 9.76 0 6.66 0 6.66C0 6.66 0 3.56 0.38 2.08C0.59 1.26 1.21 0.61 1.99 0.39C3.42 0 8.33 0 8.33 0C8.33 0 13.24 0 14.67 0.39C15.45 0.61 16.07 1.26 16.28 2.08ZM6.66 9.58L11.66 6.66L6.66 3.75L6.66 9.58Z" fill="#000000" fill-opacity="1.000000" fill-rule="nonzero"/>
</svg>
